<svg xmlns="http://www.w3.org/2000/svg" width="24" height="21.906" viewBox="0 0 24 21.906">
  <g id="Group_934" data-name="Group 934" transform="translate(-940.757 -336.279)">
    <g id="Group_931" data-name="Group 931" transform="translate(533.588 28.941)">
      <path id="Path_1086" data-name="Path 1086" d="M409.053,329.245a1,1,0,0,1-.707-1.707l19.907-19.907a1,1,0,1,1,1.414,1.414L409.76,328.952A1,1,0,0,1,409.053,329.245Z" fill="#65b0f5"/>
    </g>
    <g id="Group_932" data-name="Group 932" transform="translate(533.588 28.941)">
      <path id="Path_1087" data-name="Path 1087" d="M412.523,326.152l1.437-1.437a17.349,17.349,0,0,1-4.649-5.226c.934-1.611,4.464-7,9.858-7a9.023,9.023,0,0,1,5.229,1.787l1.436-1.436a11.092,11.092,0,0,0-6.665-2.351c-7.531,0-11.72,8.2-11.9,8.552a1.006,1.006,0,0,0,0,.9A19.445,19.445,0,0,0,412.523,326.152Z" fill="#65b0f5"/>
      <path id="Path_1088" data-name="Path 1088" d="M427.366,314.137l-1.424,1.424a18.66,18.66,0,0,1,3.085,3.93c-.934,1.61-4.465,7-9.858,7a8.318,8.318,0,0,1-3.4-.753l-1.511,1.511a10.543,10.543,0,0,0,4.914,1.242c7.531,0,11.72-8.2,11.894-8.553a1,1,0,0,0,0-.9A19.994,19.994,0,0,0,427.366,314.137Z" fill="#65b0f5"/>
    </g>
    <g id="Group_933" data-name="Group 933" transform="translate(533.588 28.941)">
      <path id="Path_1089" data-name="Path 1089" d="M421.73,319.747a2.57,2.57,0,0,1-2.35,2.349l-1.739,1.74a4.532,4.532,0,0,0,1.528.281,4.587,4.587,0,0,0,4.582-4.581,4.518,4.518,0,0,0-.282-1.529Z" fill="#65b0f5"/>
      <path id="Path_1090" data-name="Path 1090" d="M417.319,321.329a2.577,2.577,0,0,1,3.644-3.643l1.413-1.414a4.576,4.576,0,0,0-6.471,6.471Z" fill="#65b0f5"/>
    </g>
  </g>
</svg>
