<svg xmlns="http://www.w3.org/2000/svg" width="24" height="18" viewBox="0 0 24 18">
  <g id="Group_935" data-name="Group 935" transform="translate(-969.129 -339.413)">
    <path id="Path_1084" data-name="Path 1084" d="M447.541,328.472c-7.531,0-11.72-8.2-11.895-8.553a1,1,0,0,1,0-.894c.175-.349,4.364-8.553,11.895-8.553s11.72,8.2,11.9,8.553a1,1,0,0,1,0,.894C459.261,320.269,455.072,328.472,447.541,328.472Zm-9.858-9c.937,1.609,4.481,7,9.858,7,5.394,0,8.924-5.389,9.858-7-.937-1.608-4.481-7-9.858-7C442.147,312.472,438.617,317.861,437.683,319.471Z" transform="translate(533.588 28.941)" fill="#65b0f5"/>
    <path id="Path_1085" data-name="Path 1085" d="M447.541,324.1a4.581,4.581,0,1,1,4.582-4.581A4.586,4.586,0,0,1,447.541,324.1Zm0-7.163a2.581,2.581,0,1,0,2.582,2.582A2.584,2.584,0,0,0,447.541,316.937Z" transform="translate(533.588 28.941)" fill="#65b0f5"/>
  </g>
</svg>
