<svg xmlns="http://www.w3.org/2000/svg" width="50.538" height="50.538" viewBox="0 0 50.538 50.538">
  <g id="Group_464" data-name="Group 464" transform="translate(-1061.64 -591.179)">
    <g id="Group_452" data-name="Group 452" transform="translate(1061.64 591.179)">
      <g id="Group_176" data-name="Group 176" transform="translate(16.71 18.937)">
        <path id="Path_42" data-name="Path 42" d="M623.6-64.544l-5.94-5.939,1.488-1.488L623.6-67.52l10.863-10.863,1.488,1.488Z" transform="translate(-617.663 78.383)" fill="#6abdf4"/>
      </g>
      <g id="Group_179" data-name="Group 179" transform="translate(0 0)">
        <g id="Group_178" data-name="Group 178">
          <g id="Group_177" data-name="Group 177">
            <path id="Path_43" data-name="Path 43" d="M627.049-45.843a25.3,25.3,0,0,1-25.268-25.27,25.3,25.3,0,0,1,25.268-25.269,25.3,25.3,0,0,1,25.27,25.269A25.3,25.3,0,0,1,627.049-45.843Zm0-47.738a22.494,22.494,0,0,0-22.469,22.469,22.5,22.5,0,0,0,22.469,22.47,22.494,22.494,0,0,0,22.469-22.47A22.494,22.494,0,0,0,627.049-93.581Z" transform="translate(-601.781 96.381)" fill="#6abdf4"/>
          </g>
        </g>
      </g>
    </g>
  </g>
</svg>
