<svg xmlns="http://www.w3.org/2000/svg" xmlns:xlink="http://www.w3.org/1999/xlink" viewBox="0 0 284.88 51.43"><defs><style>.cls-1{isolation:isolate;}.cls-2{fill:#fff;}.cls-3{fill:url(#linear-gradient);}</style><linearGradient id="linear-gradient" x1="-624.65" y1="552.33" x2="-622.75" y2="548.42" gradientTransform="matrix(49.14, 0, 0, -24.57, 30699.45, 13553.14)" gradientUnits="userSpaceOnUse"><stop offset="0" stop-color="#81feef"/><stop offset="0.45" stop-color="#3d3dff"/><stop offset="1" stop-color="#170636"/></linearGradient></defs><g id="Layer_2" data-name="Layer 2"><g id="Layer_1-2" data-name="Layer 1"><g class="cls-1"><path class="cls-2" d="M104.79,42.43a2.92,2.92,0,0,1,0,4.29,3.88,3.88,0,0,1-2.56.78h-2.08v2.55H99v-8.4h3.28A3.88,3.88,0,0,1,104.79,42.43ZM103.93,46a1.92,1.92,0,0,0,0-2.79,2.67,2.67,0,0,0-1.74-.49h-2v3.77h2A2.67,2.67,0,0,0,103.93,46Z"/><path class="cls-2" d="M114.31,50.05l-1.81-2.58-.53,0h-2.08v2.56h-1.2v-8.4H112a3.9,3.9,0,0,1,2.57.78,2.64,2.64,0,0,1,.93,2.14,2.83,2.83,0,0,1-.48,1.66,2.69,2.69,0,0,1-1.36,1l2,2.82ZM113.67,46a1.72,1.72,0,0,0,.6-1.41,1.68,1.68,0,0,0-.6-1.39,2.67,2.67,0,0,0-1.74-.49h-2v3.78h2A2.67,2.67,0,0,0,113.67,46Z"/><path class="cls-2" d="M118.62,41.65h1.2v8.4h-1.2Z"/><path class="cls-2" d="M131.33,50.05l0-6.12-3,5.1h-.55l-3-5.07v6.09h-1.15v-8.4h1l3.51,5.9,3.45-5.9h1v8.4Z"/><path class="cls-2" d="M142.29,49v1H136.2v-8.4h5.93v1H137.4v2.58h4.21v1H137.4V49Z"/></g><g id="Group_820-2" data-name="Group 820-2"><rect id="Rectangle_308" data-name="Rectangle 308" class="cls-2" x="28.17" y="30.46" width="17.37" height="17.37" transform="translate(-16.89 37.52) rotate(-45)"/><rect id="Rectangle_309" data-name="Rectangle 309" class="cls-2" x="3.6" y="5.89" width="17.37" height="17.37" transform="translate(-6.71 12.96) rotate(-45)"/><rect id="Rectangle_310" data-name="Rectangle 310" class="cls-2" x="52.73" y="5.89" width="17.37" height="17.37" transform="translate(7.68 47.7) rotate(-45)"/><path id="Path_852" data-name="Path 852" class="cls-3" d="M61.42,26.86H36.85L12.29,2.29H36.85Z"/></g><g id="Group_822" data-name="Group 822"><g id="Group_821" data-name="Group 821"><path id="Path_853" data-name="Path 853" class="cls-2" d="M91.08,2.1h25V7.31h-9.55V32.77h-5.91V7.31H91.08Z"/><path id="Path_854" data-name="Path 854" class="cls-2" d="M124.28,10.36A9.4,9.4,0,0,1,129,9.11v5.52a7.72,7.72,0,0,0-5.81,1.69,6.52,6.52,0,0,0-2.17,5.14v11.3h-5.7V9.33h5.7v4.51A8.46,8.46,0,0,1,124.28,10.36Z"/><path id="Path_855" data-name="Path 855" class="cls-2" d="M146.29,32.77V29.92a7.72,7.72,0,0,1-3.15,2.32,11.58,11.58,0,0,1-4.43.79,9.52,9.52,0,0,1-4.32-.94,7,7,0,0,1-2.87-2.61,7,7,0,0,1-1-3.72,6.22,6.22,0,0,1,2.32-5.15,10.48,10.48,0,0,1,6.57-1.91h6.84v-.61a4,4,0,0,0-1.36-3.2,6,6,0,0,0-3.95-1.14,13.55,13.55,0,0,0-7,2.19L131.92,12a25.71,25.71,0,0,1,5-2.21,18.49,18.49,0,0,1,5.28-.68q4.56,0,7.08,2.19a7.83,7.83,0,0,1,2.56,6.13l.05,15.34Zm-2-5.28a4.05,4.05,0,0,0,2-2.87v-2.1h-5.91a6.42,6.42,0,0,0-3.36.68,2.41,2.41,0,0,0-1.07,2.21A2.87,2.87,0,0,0,137,27.78a4.85,4.85,0,0,0,3,.87,7.41,7.41,0,0,0,4.2-1.16Z"/><path id="Path_856" data-name="Path 856" class="cls-2" d="M176.17,11.54a9.18,9.18,0,0,1,2.33,6.59V32.77h-5.74v-13a5.33,5.33,0,0,0-1.4-3.88,5.14,5.14,0,0,0-3.82-1.42,5.77,5.77,0,0,0-4.49,1.93,7.05,7.05,0,0,0-1.64,4.82V32.77h-5.7V9.33h5.7v4.38q2.42-4.52,8.41-4.6A8.34,8.34,0,0,1,176.17,11.54Z"/><path id="Path_857" data-name="Path 857" class="cls-2" d="M194.64,14.1a11.54,11.54,0,0,0-3.35-.57,4.58,4.58,0,0,0-2.3.5,1.7,1.7,0,0,0-.86,1.56,1.87,1.87,0,0,0,1.08,1.69,16.86,16.86,0,0,0,3.4,1.24,35.93,35.93,0,0,1,4,1.47,7.76,7.76,0,0,1,2.74,2.15,5.78,5.78,0,0,1,1.16,3.74,6,6,0,0,1-2.63,5.26A11.24,11.24,0,0,1,191.29,33a16.75,16.75,0,0,1-5.3-.85,12.66,12.66,0,0,1-4.38-2.43l2-4a11.43,11.43,0,0,0,3.77,2.12,12.6,12.6,0,0,0,4.16.77,5,5,0,0,0,2.52-.55,1.79,1.79,0,0,0,.95-1.64,2,2,0,0,0-1.1-1.84,19.84,19.84,0,0,0-3.55-1.36,29,29,0,0,1-3.86-1.38,6.9,6.9,0,0,1-2.58-2.06,5.58,5.58,0,0,1-1.1-3.61,6.07,6.07,0,0,1,2.52-5.28,10.49,10.49,0,0,1,6.33-1.82,16.16,16.16,0,0,1,4.58.66,14.29,14.29,0,0,1,4,1.84l-2.06,4.12A17.17,17.17,0,0,0,194.64,14.1Z"/><path id="Path_858" data-name="Path 858" class="cls-2" d="M212.78,5.65a2.83,2.83,0,0,0-.86,2.23v2.41h5.88v4.16h-5.88V32.77h-5.69V14.45h-3.07V10.29h3.07V8.06a8.08,8.08,0,0,1,1.13-4.4,7.27,7.27,0,0,1,3-2.74A9.41,9.41,0,0,1,214.55,0a9.8,9.8,0,0,1,4.29,1l-1,4.6a8.11,8.11,0,0,0-2.9-.7A3.16,3.16,0,0,0,212.78,5.65Z"/><path id="Path_859" data-name="Path 859" class="cls-2" d="M238.72,12.35c1.88,2.13,2.82,5.13,2.82,9,0,.76,0,1.33,0,1.71H224.19a6.53,6.53,0,0,0,6.7,5.35,9,9,0,0,0,3.44-.68,8.41,8.41,0,0,0,2.87-1.95l3.07,3.2a12,12,0,0,1-4.27,3A14.49,14.49,0,0,1,230.41,33a13,13,0,0,1-6.33-1.49,10.38,10.38,0,0,1-4.23-4.18,13.63,13.63,0,0,1,0-12.43,10.73,10.73,0,0,1,4.23-4.22,12.57,12.57,0,0,1,6.18-1.52Q235.89,9.15,238.72,12.35Zm-2.39,6.88a5.69,5.69,0,0,0-1.71-4.12,6.67,6.67,0,0,0-8.48,0,6.74,6.74,0,0,0-2.08,4.14Z"/><path id="Path_860" data-name="Path 860" class="cls-2" d="M254.36,10.36a9.45,9.45,0,0,1,4.75-1.25v5.52a7.7,7.7,0,0,0-5.8,1.69,6.49,6.49,0,0,0-2.17,5.14v11.3h-5.7V9.33h5.7v4.51A8.51,8.51,0,0,1,254.36,10.36Z"/><path id="Path_861" data-name="Path 861" class="cls-2" d="M279,10.64a10.8,10.8,0,0,1,4.34,4.19,12.22,12.22,0,0,1,1.56,6.2,12.44,12.44,0,0,1-1.56,6.26A10.73,10.73,0,0,1,279,31.5a14.71,14.71,0,0,1-12.9,0,10.65,10.65,0,0,1-4.36-4.21A12.32,12.32,0,0,1,260.17,21a12.11,12.11,0,0,1,1.55-6.2,10.72,10.72,0,0,1,4.36-4.19,13.74,13.74,0,0,1,6.48-1.49A13.5,13.5,0,0,1,279,10.64ZM267.74,16a8.07,8.07,0,0,0,0,10.25,6.31,6.31,0,0,0,4.82,2,6.2,6.2,0,0,0,4.74-2,8.07,8.07,0,0,0,0-10.25,6.2,6.2,0,0,0-4.74-2,6.28,6.28,0,0,0-4.82,2Z"/></g></g></g></g></svg>