<svg xmlns="http://www.w3.org/2000/svg" width="26.709" height="19.04" viewBox="0 0 26.709 19.04">
  <g id="Grupo_717" data-name="Grupo 717" transform="translate(-1800.092 -466.086)">
    <g id="Icons" transform="translate(1640.833 554.869)">
      <path id="Caminho_34" data-name="Caminho 34" d="M185.917-79.567c-.076-.086-3.237-9.216-13.328-9.216s-13.252,9.13-13.281,9.216a.953.953,0,0,0,0,.609c.029.086,3.189,9.216,13.281,9.216s13.252-9.13,13.328-9.216A.954.954,0,0,0,185.917-79.567Zm-13.328,7.921a12.062,12.062,0,0,1-11.358-7.616,12.073,12.073,0,0,1,11.358-7.616,12.062,12.062,0,0,1,11.358,7.616A12.071,12.071,0,0,1,172.589-71.647Z" transform="translate(0 0)" fill="#6ABDF4"/>
      <path id="Caminho_35" data-name="Caminho 35" d="M177.543-80.518h0a4.757,4.757,0,0,0-3.027-3.027l-.19-.057a4.577,4.577,0,0,0-1.3-.181,4.76,4.76,0,0,0-4.76,4.76,4.761,4.761,0,0,0,4.76,4.76,4.76,4.76,0,0,0,4.76-4.76,4.511,4.511,0,0,0-.181-1.3A1.1,1.1,0,0,0,177.543-80.518Zm-4.522,4.351a2.856,2.856,0,0,1-2.856-2.856,2.856,2.856,0,0,1,2.856-2.856,2.715,2.715,0,0,1,.838.124h.067a2.852,2.852,0,0,1,1.809,1.809.132.132,0,0,0,0,.067,2.7,2.7,0,0,1,.143.857A2.856,2.856,0,0,1,173.021-76.167Z" transform="translate(-0.432 -0.24)" fill="#6ABDF4"/>
    </g>
  </g>
</svg>
