<svg xmlns="http://www.w3.org/2000/svg" width="130.726" height="89.366" viewBox="0 0 130.726 89.366">
  <g id="Grupo_853" data-name="Grupo 853" transform="translate(684.826 -187.106)">
    <path id="Caminho_794" data-name="Caminho 794" d="M-617.5,230.526l-1.966-1.966-3.252,3.252-20.709,20.7,23.961,23.956,23.956-23.956Zm-19.509,21.99,17.5-17.5.045-.045.091.09,17.446,17.452-17.537,17.537Z" fill="#271b67"/>
    <path id="Caminho_795" data-name="Caminho 795" d="M-656.326,191.7l-4.538-4.538-3.258,3.253-20.7,20.7,23.962,23.956,23.911-23.911.045-.045Zm-4.538,36.956-17.543-17.537,17.5-17.492.046-.046,17.537,17.538-.045.045Z" fill="#271b67"/>
    <path id="Caminho_796" data-name="Caminho 796" d="M-578.062,187.151l-20.7,20.705-3.212,3.206-.045.046,23.956,23.956,3.258-3.252,20.7-20.7Zm.045,41.449-.045.045L-595.6,211.108l.045-.046,17.492-17.492,17.543,17.538Z" fill="#271b67"/>
    <path id="Caminho_797" data-name="Caminho 797" d="M-578.016,228.555l-17.538-17.537-3.207-3.207-20.7-20.705h-41.408l-3.257,3.253,20.749,20.749,3.212,3.207,20.7,20.7h41.4l3.258-3.252Zm-39.573,1.926-38.837-38.836h35.08l38.837,38.836Z" fill="#271b67"/>
  </g>
</svg>
